<svg width="384" height="113" viewBox="0 0 384 113" fill="none" xmlns="http://www.w3.org/2000/svg">
<path d="M0 15.5862C0 6.97818 7.01725 0 15.6735 0H39.1837C47.8397 0 54.8571 6.97818 54.8571 15.5862V97.4138C54.8571 106.022 47.8397 113 39.1837 113H15.6735C7.01725 113 0 106.022 0 97.4138V15.5862Z" fill="#2F80ED"/>
<path d="M70.5306 15.5862C70.5306 6.97818 77.548 0 86.2041 0H109.714C118.37 0 125.388 6.97818 125.388 15.5862V54.5517C125.388 63.1596 118.37 70.1379 109.714 70.1379H86.2041C77.548 70.1379 70.5306 63.1596 70.5306 54.5517V15.5862Z" fill="#2F80ED"/>
<path d="M208.236 52.1423H197.97C197.782 50.8142 197.4 49.6345 196.822 48.6033C196.243 47.5564 195.501 46.6658 194.595 45.9314C193.689 45.197 192.642 44.6345 191.454 44.2439C190.282 43.8533 189.009 43.658 187.634 43.658C185.15 43.658 182.986 44.2751 181.142 45.5095C179.298 46.7283 177.868 48.5095 176.853 50.8533C175.837 53.1814 175.329 56.0095 175.329 59.3376C175.329 62.7595 175.837 65.6345 176.853 67.9626C177.884 70.2908 179.322 72.0486 181.165 73.2361C183.009 74.4236 185.142 75.0173 187.564 75.0173C188.923 75.0173 190.181 74.8376 191.337 74.4783C192.509 74.1189 193.548 73.5955 194.454 72.908C195.361 72.2048 196.111 71.3533 196.704 70.3533C197.314 69.3533 197.736 68.2126 197.97 66.9314L208.236 66.9783C207.97 69.1814 207.306 71.3064 206.243 73.3533C205.197 75.3845 203.782 77.2048 202.001 78.8142C200.236 80.408 198.126 81.6736 195.673 82.6111C193.236 83.533 190.478 83.9939 187.4 83.9939C183.118 83.9939 179.29 83.0251 175.915 81.0876C172.556 79.1501 169.9 76.3455 167.947 72.6736C166.009 69.0017 165.04 64.5564 165.04 59.3376C165.04 54.1033 166.025 49.6501 167.993 45.9783C169.962 42.3064 172.634 39.5095 176.009 37.5876C179.384 35.6501 183.181 34.6814 187.4 34.6814C190.181 34.6814 192.759 35.072 195.134 35.8533C197.525 36.6345 199.642 37.7751 201.486 39.2751C203.329 40.7595 204.829 42.5798 205.986 44.7361C207.157 46.8923 207.907 49.3611 208.236 52.1423ZM215.325 83.3376V47.3376H225.005V53.6189H225.38C226.036 51.3845 227.138 49.697 228.685 48.5564C230.232 47.4001 232.013 46.822 234.029 46.822C234.529 46.822 235.068 46.8533 235.646 46.9158C236.224 46.9783 236.732 47.0642 237.169 47.1736V56.033C236.7 55.8923 236.052 55.7673 235.224 55.658C234.396 55.5486 233.638 55.4939 232.95 55.4939C231.482 55.4939 230.169 55.8142 229.013 56.4548C227.872 57.0798 226.966 57.9548 226.294 59.0798C225.638 60.2048 225.31 61.5017 225.31 62.9705V83.3376H215.325ZM257.062 84.0408C253.359 84.0408 250.171 83.2908 247.499 81.7908C244.843 80.2751 242.796 78.1345 241.359 75.3689C239.921 72.5876 239.202 69.2986 239.202 65.5017C239.202 61.7986 239.921 58.5486 241.359 55.7517C242.796 52.9548 244.82 50.7751 247.429 49.2126C250.054 47.6501 253.132 46.8689 256.663 46.8689C259.038 46.8689 261.249 47.2517 263.296 48.0173C265.359 48.7673 267.156 49.9001 268.687 51.4158C270.234 52.9314 271.437 54.8376 272.296 57.1345C273.156 59.4158 273.585 62.0876 273.585 65.1501V67.8923H243.187V61.7048H264.187C264.187 60.2673 263.874 58.9939 263.249 57.8845C262.624 56.7751 261.757 55.908 260.648 55.283C259.554 54.6423 258.281 54.322 256.827 54.322C255.312 54.322 253.968 54.6736 252.796 55.3767C251.64 56.0642 250.734 56.9939 250.077 58.1658C249.421 59.322 249.085 60.6111 249.07 62.033V67.9158C249.07 69.697 249.398 71.2361 250.054 72.533C250.726 73.8298 251.671 74.8298 252.89 75.533C254.109 76.2361 255.554 76.5876 257.226 76.5876C258.335 76.5876 259.351 76.4314 260.273 76.1189C261.195 75.8064 261.984 75.3376 262.64 74.7126C263.296 74.0876 263.796 73.322 264.14 72.4158L273.374 73.0251C272.906 75.2439 271.945 77.1814 270.491 78.8376C269.054 80.4783 267.195 81.7595 264.913 82.6814C262.648 83.5876 260.031 84.0408 257.062 84.0408ZM290.085 35.3376V83.3376H280.101V35.3376H290.085ZM308.068 35.3376V83.3376H298.083V35.3376H308.068ZM332.331 84.0408C328.691 84.0408 325.542 83.2673 322.886 81.7205C320.245 80.158 318.206 77.9861 316.769 75.2048C315.331 72.408 314.613 69.1658 314.613 65.4783C314.613 61.7595 315.331 58.5095 316.769 55.7283C318.206 52.9314 320.245 50.7595 322.886 49.2126C325.542 47.6501 328.691 46.8689 332.331 46.8689C335.972 46.8689 339.113 47.6501 341.753 49.2126C344.409 50.7595 346.456 52.9314 347.894 55.7283C349.331 58.5095 350.05 61.7595 350.05 65.4783C350.05 69.1658 349.331 72.408 347.894 75.2048C346.456 77.9861 344.409 80.158 341.753 81.7205C339.113 83.2673 335.972 84.0408 332.331 84.0408ZM332.378 76.3064C334.034 76.3064 335.417 75.8376 336.527 74.9001C337.636 73.947 338.472 72.6501 339.034 71.0095C339.613 69.3689 339.902 67.5017 339.902 65.408C339.902 63.3142 339.613 61.447 339.034 59.8064C338.472 58.1658 337.636 56.8689 336.527 55.9158C335.417 54.9626 334.034 54.4861 332.378 54.4861C330.706 54.4861 329.3 54.9626 328.159 55.9158C327.034 56.8689 326.183 58.1658 325.605 59.8064C325.042 61.447 324.761 63.3142 324.761 65.408C324.761 67.5017 325.042 69.3689 325.605 71.0095C326.183 72.6501 327.034 73.947 328.159 74.9001C329.3 75.8376 330.706 76.3064 332.378 76.3064Z" fill="black" fill-opacity="0.9"/>
</svg>
