<svg width="384" height="113" viewBox="0 0 384 113" fill="none" xmlns="http://www.w3.org/2000/svg">
<path d="M0 15.5862C0 6.97818 7.01725 0 15.6735 0H39.1837C47.8397 0 54.8571 6.97818 54.8571 15.5862V97.4138C54.8571 106.022 47.8397 113 39.1837 113H15.6735C7.01725 113 0 106.022 0 97.4138V15.5862Z" fill="#2F80ED"/>
<path d="M70.5306 15.5862C70.5306 6.97818 77.548 0 86.2041 0H109.714C118.37 0 125.388 6.97818 125.388 15.5862V54.5517C125.388 63.1596 118.37 70.1379 109.714 70.1379H86.2041C77.548 70.1379 70.5306 63.1596 70.5306 54.5517V15.5862Z" fill="#2F80ED"/>
<path d="M212.838 51.0148H204.205C203.959 49.5991 203.505 48.345 202.844 47.2524C202.182 46.1445 201.359 45.2058 200.374 44.4364C199.389 43.667 198.266 43.0899 197.004 42.7052C195.757 42.3051 194.411 42.105 192.964 42.105C190.394 42.105 188.117 42.7514 186.132 44.044C184.147 45.3212 182.593 47.1986 181.469 49.6761C180.346 52.1382 179.784 55.1466 179.784 58.7013C179.784 62.3175 180.346 65.3644 181.469 67.8419C182.608 70.304 184.162 72.166 186.132 73.4278C188.117 74.6743 190.387 75.2975 192.941 75.2975C194.357 75.2975 195.68 75.1129 196.911 74.7435C198.158 74.3588 199.273 73.7972 200.258 73.0585C201.259 72.3199 202.097 71.412 202.774 70.3348C203.467 69.2576 203.944 68.0266 204.205 66.6416L212.838 66.6878C212.515 68.9345 211.815 71.0427 210.738 73.0124C209.676 74.9821 208.283 76.7209 206.56 78.229C204.836 79.7216 202.82 80.8912 200.512 81.7375C198.204 82.5685 195.642 82.984 192.826 82.984C188.671 82.984 184.962 82.0222 181.7 80.0987C178.438 78.1751 175.868 75.3975 173.991 71.7659C172.113 68.1343 171.175 63.7794 171.175 58.7013C171.175 53.6078 172.121 49.2529 174.014 45.6367C175.906 42.005 178.484 39.2274 181.746 37.3039C185.009 35.3804 188.702 34.4186 192.826 34.4186C195.457 34.4186 197.904 34.7879 200.166 35.5266C202.428 36.2652 204.444 37.3501 206.214 38.7812C207.983 40.1969 209.437 41.9358 210.576 43.9978C211.73 46.0444 212.484 48.3835 212.838 51.0148ZM220.311 82.3376V46.8831H228.413V52.7922H228.782C229.429 50.7456 230.537 49.1683 232.106 48.0603C233.691 46.937 235.499 46.3753 237.531 46.3753C237.992 46.3753 238.508 46.3984 239.077 46.4445C239.662 46.4753 240.147 46.5292 240.531 46.6061V54.2925C240.177 54.1694 239.616 54.0617 238.846 53.9694C238.092 53.8617 237.361 53.8078 236.653 53.8078C235.13 53.8078 233.76 54.1387 232.545 54.8004C231.345 55.4467 230.398 56.3469 229.706 57.501C229.013 58.6551 228.667 59.9862 228.667 61.4943V82.3376H220.311ZM260.319 83.0301C256.764 83.0301 253.694 82.2915 251.109 80.8142C248.539 79.3215 246.562 77.2134 245.177 74.4896C243.792 71.7505 243.099 68.5267 243.099 64.8181C243.099 61.1711 243.792 57.9703 245.177 55.2158C246.577 52.446 248.531 50.2916 251.04 48.7528C253.548 47.1986 256.495 46.4215 259.88 46.4215C262.065 46.4215 264.127 46.7754 266.066 47.4832C268.021 48.1757 269.744 49.2529 271.237 50.7148C272.745 52.1767 273.93 54.0386 274.791 56.3007C275.653 58.5474 276.084 61.225 276.084 64.3334V66.8955H247.023V61.2634H268.074C268.059 59.663 267.713 58.2396 267.036 56.9932C266.359 55.7313 265.412 54.7388 264.197 54.0156C262.996 53.2923 261.596 52.9307 259.996 52.9307C258.287 52.9307 256.787 53.3462 255.494 54.1771C254.202 54.9927 253.194 56.0699 252.471 57.4087C251.763 58.7321 251.401 60.1862 251.386 61.7712V66.6878C251.386 68.7498 251.763 70.5195 252.517 71.9967C253.271 73.4586 254.325 74.582 255.679 75.3668C257.033 76.1362 258.618 76.5209 260.434 76.5209C261.65 76.5209 262.75 76.3516 263.735 76.0131C264.72 75.6591 265.574 75.1436 266.297 74.4666C267.02 73.7895 267.567 72.9508 267.936 71.9506L275.738 72.8277C275.245 74.8897 274.307 76.6902 272.922 78.229C271.552 79.7524 269.798 80.9373 267.659 81.7837C265.52 82.6146 263.073 83.0301 260.319 83.0301ZM291.509 35.0649V82.3376H283.153V35.0649H291.509ZM308.457 35.0649V82.3376H300.101V35.0649H308.457ZM332.515 83.0301C329.052 83.0301 326.052 82.2684 323.512 80.745C320.973 79.2215 319.004 77.0903 317.603 74.3511C316.218 71.612 315.526 68.4113 315.526 64.7489C315.526 61.0865 316.218 57.878 317.603 55.1235C319.004 52.369 320.973 50.23 323.512 48.7066C326.052 47.1832 329.052 46.4215 332.515 46.4215C335.977 46.4215 338.978 47.1832 341.517 48.7066C344.056 50.23 346.018 52.369 347.403 55.1235C348.803 57.878 349.503 61.0865 349.503 64.7489C349.503 68.4113 348.803 71.612 347.403 74.3511C346.018 77.0903 344.056 79.2215 341.517 80.745C338.978 82.2684 335.977 83.0301 332.515 83.0301ZM332.561 76.3362C334.438 76.3362 336.008 75.8207 337.27 74.7897C338.531 73.7433 339.47 72.343 340.086 70.5887C340.717 68.8345 341.032 66.8801 341.032 64.7258C341.032 62.556 340.717 60.594 340.086 58.8398C339.47 57.0701 338.531 55.6621 337.27 54.6157C336.008 53.5693 334.438 53.0461 332.561 53.0461C330.637 53.0461 329.037 53.5693 327.76 54.6157C326.498 55.6621 325.551 57.0701 324.921 58.8398C324.305 60.594 323.997 62.556 323.997 64.7258C323.997 66.8801 324.305 68.8345 324.921 70.5887C325.551 72.343 326.498 73.7433 327.76 74.7897C329.037 75.8207 330.637 76.3362 332.561 76.3362Z" fill="black" fill-opacity="0.9"/>
</svg>
