<?xml version="1.0" standalone="no"?>
<!DOCTYPE svg PUBLIC "-//W3C//DTD SVG 20010904//EN"
 "http://www.w3.org/TR/2001/REC-SVG-20010904/DTD/svg10.dtd">
<svg version="1.0" xmlns="http://www.w3.org/2000/svg"
 width="912.000000pt" height="912.000000pt" viewBox="0 0 912.000000 912.000000"
 preserveAspectRatio="xMidYMid meet">
<metadata>
Created by potrace 1.14, written by Peter Selinger 2001-2017
</metadata>
<g transform="translate(0.000000,912.000000) scale(0.100000,-0.100000)"
fill="#000000" stroke="none">
<path d="M1019 9076 c-2 -2 -22 -6 -44 -9 -22 -3 -51 -8 -65 -12 -14 -4 -32
-8 -40 -9 -33 -5 -152 -49 -200 -75 -74 -39 -109 -59 -132 -76 -14 -11 -41
-31 -60 -45 -89 -65 -240 -237 -287 -328 -8 -15 -17 -29 -20 -32 -9 -8 -56
-107 -85 -180 -28 -72 -61 -203 -75 -301 -11 -70 -8 -6882 2 -6934 23 -114 80
-300 105 -340 4 -5 7 -14 8 -20 1 -5 15 -32 30 -60 16 -27 36 -62 43 -77 8
-16 18 -28 23 -28 4 0 8 -5 8 -11 0 -30 248 -289 277 -289 7 0 13 -4 13 -8 0
-21 225 -135 310 -157 14 -3 41 -11 60 -16 19 -5 58 -13 85 -17 65 -9 1958 -9
2010 0 89 16 101 19 135 29 40 12 54 17 130 50 69 30 147 74 193 109 51 38
155 131 182 161 61 68 185 246 185 264 0 3 16 37 35 76 19 40 33 74 30 77 -2
2 3 18 11 34 9 17 17 37 19 47 1 9 8 34 13 56 21 79 31 143 36 237 2 37 7 71
11 77 3 6 1 11 -5 11 -8 0 -8 6 0 21 8 14 8 24 1 32 -6 8 -6 18 -1 27 5 9 5
19 -1 27 -6 7 -7 19 -2 30 5 10 8 29 6 43 -5 33 -3 103 2 109 3 2 0 10 -6 18
-9 10 -8 13 1 13 9 0 9 4 2 13 -7 8 -7 18 -2 27 5 9 5 19 -1 27 -7 8 -7 19 1
33 8 16 8 25 0 35 -8 9 -8 15 0 20 6 4 7 13 2 23 -10 20 -10 33 2 50 5 8 4 18
-2 24 -7 7 -8 17 -2 29 7 11 7 20 0 24 -6 4 -7 13 -1 24 5 9 6 23 2 29 -4 7
-5 33 -1 57 4 26 3 48 -4 55 -7 7 -6 10 3 10 10 0 11 3 3 13 -7 8 -7 18 -2 27
5 9 5 19 -1 27 -7 8 -7 19 1 33 8 16 8 25 0 35 -8 9 -8 15 0 20 6 4 7 13 2 23
-10 20 -10 33 2 50 5 8 4 18 -2 24 -7 7 -8 17 -2 29 7 11 7 20 0 24 -6 4 -7
13 -1 24 5 9 6 23 2 29 -4 7 -5 33 -1 57 4 26 3 48 -4 55 -7 7 -6 10 3 10 10
0 11 3 3 13 -7 8 -7 18 -2 27 5 9 5 19 -1 27 -7 8 -7 19 1 33 8 16 8 25 0 35
-8 9 -8 15 0 20 6 4 7 13 2 23 -10 20 -10 33 2 50 5 8 4 18 -2 24 -7 7 -8 17
-2 29 7 11 7 20 0 24 -6 4 -7 13 -1 24 5 9 6 23 2 29 -4 7 -5 33 -1 57 4 26 3
48 -4 55 -7 7 -6 10 3 10 10 0 11 3 3 13 -7 8 -7 18 -2 27 5 9 5 19 -1 27 -7
8 -7 19 1 33 8 16 8 25 0 35 -8 9 -8 15 0 20 6 4 7 13 2 23 -10 20 -10 33 2
50 5 8 4 18 -2 24 -7 7 -8 17 -2 29 7 11 7 20 0 24 -6 4 -7 13 -1 24 5 9 6 23
2 29 -4 7 -5 33 -1 57 4 26 3 48 -4 55 -7 7 -6 10 3 10 10 0 11 3 3 13 -7 8
-7 18 -2 27 5 9 5 19 -1 27 -7 8 -7 19 1 33 8 16 8 25 0 35 -8 9 -8 15 0 20 6
4 7 13 2 23 -10 20 -10 33 2 50 5 8 4 18 -2 24 -7 7 -8 17 -2 29 7 11 7 20 0
24 -6 4 -7 13 -1 24 5 9 6 23 2 29 -4 7 -5 33 -1 57 4 26 3 48 -4 55 -7 7 -6
10 3 10 10 0 11 3 3 13 -7 8 -7 18 -2 27 5 9 5 19 -1 27 -7 8 -7 19 1 33 8 16
8 25 0 35 -8 9 -8 15 0 20 6 4 7 13 2 23 -10 20 -10 33 2 50 5 8 4 18 -2 24
-7 7 -8 17 -2 29 7 11 7 20 0 24 -6 4 -7 13 -1 24 5 9 6 23 2 29 -4 7 -5 33
-1 57 4 26 3 48 -4 55 -7 7 -6 10 3 10 10 0 11 3 3 13 -7 8 -7 18 -2 27 5 9 5
19 -1 27 -7 8 -7 19 1 33 8 16 8 25 0 35 -8 9 -8 15 0 20 6 4 7 12 1 23 -12
22 -12 34 1 50 8 9 8 16 0 24 -7 7 -8 17 -2 29 7 11 7 20 0 24 -6 4 -7 13 -1
24 5 9 6 23 2 29 -4 7 -5 33 -1 57 4 26 3 48 -4 55 -7 7 -6 10 3 10 10 0 11 3
3 13 -7 8 -7 18 -2 27 5 9 5 19 -1 27 -7 8 -7 19 1 33 8 14 8 25 1 33 -6 8 -6
18 -1 27 5 9 5 19 -1 27 -7 8 -7 19 1 33 8 14 8 25 1 33 -6 8 -6 18 -1 27 5 9
5 19 -2 27 -7 9 -7 13 2 13 9 0 9 4 2 13 -7 8 -7 18 -2 27 5 9 5 19 -1 27 -7
8 -7 19 1 33 8 16 8 25 0 35 -8 9 -8 15 0 20 6 4 7 13 2 23 -10 20 -10 33 2
50 5 8 4 18 -2 24 -7 7 -8 17 -2 29 7 11 7 20 0 24 -6 4 -7 13 -1 24 5 9 6 23
2 29 -4 7 -5 33 -1 57 4 26 3 48 -4 55 -7 7 -6 10 3 10 10 0 11 3 3 13 -7 8
-7 18 -2 27 5 9 5 19 -1 27 -7 8 -7 19 1 33 8 16 8 25 0 35 -8 9 -8 15 0 20 6
4 7 13 2 23 -10 20 -10 33 2 50 5 8 4 18 -2 24 -7 7 -8 17 -2 29 7 11 7 20 0
24 -6 4 -7 13 -1 24 5 9 6 23 2 29 -4 7 -5 33 -1 57 4 26 3 48 -4 55 -7 7 -6
10 3 10 10 0 11 3 3 13 -7 8 -7 18 -2 27 5 9 5 19 -1 27 -7 8 -7 19 1 33 8 14
8 25 1 33 -6 8 -6 18 -1 27 5 9 5 19 -1 27 -7 8 -7 19 1 33 8 14 8 25 1 33 -6
8 -6 18 -1 27 5 9 5 19 -2 27 -7 9 -7 13 2 13 9 0 9 4 2 13 -7 8 -7 18 -2 27
5 9 5 19 -1 27 -7 8 -7 19 1 33 8 16 8 25 0 35 -8 9 -8 15 0 20 7 4 6 13 -2
28 -12 24 -12 25 4 45 8 9 8 16 0 24 -7 7 -8 17 -2 29 7 11 7 20 0 24 -6 4 -7
13 -1 24 5 9 6 23 2 29 -4 7 -5 33 -1 57 4 26 3 48 -4 55 -7 7 -6 10 3 10 10
0 11 3 3 13 -7 8 -7 18 -2 27 5 9 5 19 -1 27 -7 8 -7 19 1 33 8 16 8 25 0 35
-8 9 -8 15 0 20 6 4 7 13 2 23 -10 20 -10 33 2 50 5 8 4 18 -2 24 -7 7 -8 17
-2 29 7 11 7 20 0 24 -6 4 -7 13 -1 24 5 9 6 23 2 29 -4 7 -5 33 -1 57 4 26 3
48 -4 55 -7 7 -6 10 3 10 10 0 11 3 3 13 -7 8 -7 18 -2 27 5 9 5 19 -1 27 -7
8 -7 19 1 33 8 14 8 25 1 33 -6 8 -6 18 -1 27 5 9 5 19 -1 27 -7 8 -7 19 1 33
8 16 9 25 1 33 -6 6 -7 16 -1 28 6 10 7 20 3 22 -5 3 -8 44 -8 91 0 47 -3 86
-7 86 -4 0 -5 6 -2 13 16 43 -113 441 -148 455 -4 2 -8 9 -8 14 0 13 -61 112
-72 116 -5 2 -8 8 -8 13 0 8 -31 47 -67 85 -7 7 -13 17 -13 23 0 6 -4 11 -8
11 -5 0 -33 24 -63 53 -30 28 -64 59 -75 67 -117 82 -144 100 -144 94 0 -4 -8
0 -17 8 -17 14 -132 67 -157 73 -6 1 -18 5 -26 8 -13 4 -47 14 -85 22 -5 2
-26 6 -45 11 -34 8 -1983 18 -1991 10z"/>
<path d="M6090 9070 c-19 -4 -48 -10 -65 -14 -61 -12 -71 -15 -127 -35 -32
-11 -82 -32 -110 -47 -29 -15 -66 -34 -83 -42 -16 -9 -32 -18 -35 -22 -3 -4
-15 -12 -28 -19 -27 -14 -160 -127 -184 -156 -9 -11 -32 -38 -52 -60 -20 -22
-36 -43 -36 -46 0 -3 -9 -17 -21 -30 -49 -56 -162 -280 -174 -344 -2 -11 -4
-20 -5 -20 -2 0 -4 -7 -25 -90 -8 -33 -18 -82 -22 -110 -11 -68 -10 -3456 0
-3524 55 -351 260 -686 525 -855 26 -17 49 -33 52 -37 23 -28 282 -125 360
-135 19 -2 53 -6 75 -9 46 -6 1842 -7 1895 -1 89 9 198 32 250 53 8 3 20 7 26
8 24 6 187 91 205 108 10 10 19 15 19 12 0 -12 97 71 175 150 74 75 185 221
185 243 0 5 7 15 15 22 8 7 15 21 15 31 0 11 4 19 8 19 8 0 69 150 77 188 2
12 7 27 10 32 4 6 9 23 11 38 3 15 10 47 15 72 6 25 13 65 17 90 10 62 9 3413
-1 3475 -8 56 -15 90 -17 90 -2 0 -6 17 -13 60 -7 38 -40 138 -63 190 -10 22
-18 42 -19 45 -1 5 -31 61 -62 117 -65 117 -227 293 -333 363 -12 8 -28 20
-34 25 -30 26 -149 85 -191 95 -5 1 -19 9 -30 16 -11 8 -29 14 -41 14 -11 0
-24 3 -28 7 -3 4 -12 8 -19 9 -16 3 -61 11 -122 23 -59 12 -1942 12 -1995 1z"/>
</g>
</svg>
